HIERARCHY
ROOT Hips
{
	OFFSET 0.000000 100.481300 0.000000
	CHANNELS 6 Xposition Yposition Zposition Xrotation Yrotation Zrotation
	JOINT Spine
	{
		OFFSET -0.279200 12.230698 -2.892100
		CHANNELS 3 Xrotation Yrotation Zrotation
		JOINT Spine1
		{
			OFFSET -0.325700 14.269203 -3.374200
			CHANNELS 3 Xrotation Yrotation Zrotation
			JOINT Spine2
			{
				OFFSET -0.372300 16.307602 -0.352600
				CHANNELS 3 Xrotation Yrotation Zrotation
				JOINT Neck
				{
					OFFSET -0.418800 17.814194 8.416900
					CHANNELS 3 Xrotation Yrotation Zrotation
					JOINT Head
					{
						OFFSET 0.000000 7.031097 3.806800
						CHANNELS 3 Xrotation Yrotation Zrotation
						JOINT HeadTop_End
						{
							OFFSET 0.000000 24.646606 12.978600
							CHANNELS 3 Xrotation Yrotation Zrotation
							End Site
							{
								OFFSET 0.000000 27.854965 0.000000
							}
						}
					}
				}
				JOINT LeftShoulder
				{
					OFFSET 16.952999 14.495407 -7.737500
					CHANNELS 3 Xrotation Yrotation Zrotation
					JOINT LeftArm
					{
						OFFSET 9.308998 -2.777710 0.208600
						CHANNELS 3 Xrotation Yrotation Zrotation
						JOINT LeftForeArm
						{
							OFFSET 29.972298 0.000000 0.000000
							CHANNELS 3 Xrotation Yrotation Zrotation
							JOINT LeftHand
							{
								OFFSET 26.026505 0.000000 0.000000
								CHANNELS 3 Xrotation Yrotation Zrotation
								JOINT LeftHandThumb1
								{
									OFFSET 12.240501 -7.147949 9.207150
									CHANNELS 3 Xrotation Yrotation Zrotation
									JOINT LeftHandThumb2
									{
										OFFSET 4.138618 -2.389435 2.389433
										CHANNELS 3 Xrotation Yrotation Zrotation
										JOINT LeftHandThumb3
										{
											OFFSET 2.726913 -1.574387 1.574386
											CHANNELS 3 Xrotation Yrotation Zrotation
											JOINT LeftHandThumb4
											{
												OFFSET 3.941010 -2.275345 2.275342
												CHANNELS 3 Xrotation Yrotation Zrotation
												End Site
												{
													OFFSET -0.005798 5.087799 0.009903
												}
											}
										}
									}
								}
								JOINT LeftHandIndex1
								{
									OFFSET 24.424698 -1.985611 5.953459
									CHANNELS 3 Xrotation Yrotation Zrotation
									JOINT LeftHandIndex2
									{
										OFFSET 6.426697 0.000000 0.000000
										CHANNELS 3 Xrotation Yrotation Zrotation
										JOINT LeftHandIndex3
										{
											OFFSET 5.337898 0.000000 0.000000
											CHANNELS 3 Xrotation Yrotation Zrotation
											JOINT LeftHandIndex4
											{
												OFFSET 4.409401 0.000000 0.000000
												CHANNELS 3 Xrotation Yrotation Zrotation
												End Site
												{
													OFFSET 0.000000 4.409363 0.014373
												}
											}
										}
									}
								}
								JOINT LeftHandMiddle1
								{
									OFFSET 23.810104 0.000000 0.000000
									CHANNELS 3 Xrotation Yrotation Zrotation
									JOINT LeftHandMiddle2
									{
										OFFSET 7.176498 0.000000 0.000000
										CHANNELS 3 Xrotation Yrotation Zrotation
										JOINT LeftHandMiddle3
										{
											OFFSET 6.774902 0.000000 0.000000
											CHANNELS 3 Xrotation Yrotation Zrotation
											JOINT LeftHandMiddle4
											{
												OFFSET 5.403328 0.000000 0.000000
												CHANNELS 3 Xrotation Yrotation Zrotation
												End Site
												{
													OFFSET -0.027702 5.403244 0.017414
												}
											}
										}
									}
								}
								JOINT LeftHandRing1
								{
									OFFSET 22.908401 -0.839279 -6.020567
									CHANNELS 3 Xrotation Yrotation Zrotation
									JOINT LeftHandRing2
									{
										OFFSET 6.337502 0.000000 0.000000
										CHANNELS 3 Xrotation Yrotation Zrotation
										JOINT LeftHandRing3
										{
											OFFSET 5.779297 0.000000 0.000000
											CHANNELS 3 Xrotation Yrotation Zrotation
											JOINT LeftHandRing4
											{
												OFFSET 4.965698 0.000000 0.000000
												CHANNELS 3 Xrotation Yrotation Zrotation
												End Site
												{
													OFFSET 0.000000 4.965668 0.016186
												}
											}
										}
									}
								}
								JOINT LeftHandPinky1
								{
									OFFSET 20.037003 -1.530319 -10.950146
									CHANNELS 3 Xrotation Yrotation Zrotation
									JOINT LeftHandPinky2
									{
										OFFSET 5.254700 0.000000 0.000000
										CHANNELS 3 Xrotation Yrotation Zrotation
										JOINT LeftHandPinky3
										{
											OFFSET 4.810204 0.000000 0.000000
											CHANNELS 3 Xrotation Yrotation Zrotation
											JOINT LeftHandPinky4
											{
												OFFSET 3.647202 0.000000 0.000000
												CHANNELS 3 Xrotation Yrotation Zrotation
												End Site
												{
													OFFSET 0.000000 3.647186 0.011889
												}
											}
										}
									}
								}
							}
						}
					}
				}
				JOINT RightShoulder
				{
					OFFSET -15.141001 14.495407 -7.737500
					CHANNELS 3 Xrotation Yrotation Zrotation
					JOINT RightArm
					{
						OFFSET -9.308998 -2.777710 0.208500
						CHANNELS 3 Xrotation Yrotation Zrotation
						JOINT RightForeArm
						{
							OFFSET -29.972300 0.000000 0.000000
							CHANNELS 3 Xrotation Yrotation Zrotation
							JOINT RightHand
							{
								OFFSET -26.026505 0.000000 0.000000
								CHANNELS 3 Xrotation Yrotation Zrotation
								JOINT RightHandThumb1
								{
									OFFSET -12.240601 -7.148026 9.207092
									CHANNELS 3 Xrotation Yrotation Zrotation
									JOINT RightHandThumb2
									{
										OFFSET -4.138618 -2.389435 2.389433
										CHANNELS 3 Xrotation Yrotation Zrotation
										JOINT RightHandThumb3
										{
											OFFSET -2.726974 -1.574417 1.574421
											CHANNELS 3 Xrotation Yrotation Zrotation
											JOINT RightHandThumb4
											{
												OFFSET -3.941010 -2.275345 2.275343
												CHANNELS 3 Xrotation Yrotation Zrotation
												End Site
												{
													OFFSET 0.005814 5.087799 0.009927
												}
											}
										}
									}
								}
								JOINT RightHandIndex1
								{
									OFFSET -24.424698 -1.985657 5.953444
									CHANNELS 3 Xrotation Yrotation Zrotation
									JOINT RightHandIndex2
									{
										OFFSET -6.426697 0.000000 0.000000
										CHANNELS 3 Xrotation Yrotation Zrotation
										JOINT RightHandIndex3
										{
											OFFSET -5.337898 0.000000 0.000000
											CHANNELS 3 Xrotation Yrotation Zrotation
											JOINT RightHandIndex4
											{
												OFFSET -4.409401 0.000000 0.000000
												CHANNELS 3 Xrotation Yrotation Zrotation
												End Site
												{
													OFFSET 0.000000 4.409363 0.014408
												}
											}
										}
									}
								}
								JOINT RightHandMiddle1
								{
									OFFSET -23.810097 0.000000 0.000000
									CHANNELS 3 Xrotation Yrotation Zrotation
									JOINT RightHandMiddle2
									{
										OFFSET -7.176498 0.000000 0.000000
										CHANNELS 3 Xrotation Yrotation Zrotation
										JOINT RightHandMiddle3
										{
											OFFSET -6.774902 0.000000 0.000000
											CHANNELS 3 Xrotation Yrotation Zrotation
											JOINT RightHandMiddle4
											{
												OFFSET -5.403328 0.000000 0.000000
												CHANNELS 3 Xrotation Yrotation Zrotation
												End Site
												{
													OFFSET 0.027702 5.403244 0.017457
												}
											}
										}
									}
								}
								JOINT RightHandRing1
								{
									OFFSET -22.908302 -0.839325 -6.020576
									CHANNELS 3 Xrotation Yrotation Zrotation
									JOINT RightHandRing2
									{
										OFFSET -6.337502 0.000000 0.000000
										CHANNELS 3 Xrotation Yrotation Zrotation
										JOINT RightHandRing3
										{
											OFFSET -5.779297 0.000000 0.000000
											CHANNELS 3 Xrotation Yrotation Zrotation
											JOINT RightHandRing4
											{
												OFFSET -4.965698 0.000000 0.000000
												CHANNELS 3 Xrotation Yrotation Zrotation
												End Site
												{
													OFFSET 0.000000 4.965668 0.016226
												}
											}
										}
									}
								}
								JOINT RightHandPinky1
								{
									OFFSET -20.037003 -1.530334 -10.950259
									CHANNELS 3 Xrotation Yrotation Zrotation
									JOINT RightHandPinky2
									{
										OFFSET -5.254700 0.000000 0.000000
										CHANNELS 3 Xrotation Yrotation Zrotation
										JOINT RightHandPinky3
										{
											OFFSET -4.810204 0.000000 0.000000
											CHANNELS 3 Xrotation Yrotation Zrotation
											JOINT RightHandPinky4
											{
												OFFSET -3.647202 0.000000 0.000000
												CHANNELS 3 Xrotation Yrotation Zrotation
												End Site
												{
													OFFSET 0.000000 3.647186 0.011917
												}
											}
										}
									}
								}
							}
						}
					}
				}
			}
		}
	}
	JOINT LeftUpLeg
	{
		OFFSET 15.427100 -6.655098 0.678600
		CHANNELS 3 Xrotation Yrotation Zrotation
		JOINT LeftLeg
		{
			OFFSET 4.081073 -39.591068 13.024000
			CHANNELS 3 Xrotation Yrotation Zrotation
			JOINT LeftFoot
			{
				OFFSET -4.081074 -37.707932 -15.979700
				CHANNELS 3 Xrotation Yrotation Zrotation
				JOINT LeftToeBase
				{
					OFFSET 5.346399 -15.068900 20.645000
					CHANNELS 3 Xrotation Yrotation Zrotation
					JOINT LeftToe_End
					{
						OFFSET 2.754700 0.931300 11.300900
						CHANNELS 3 Xrotation Yrotation Zrotation
						End Site
						{
							OFFSET 0.000000 11.669021 0.000000
						}
					}
				}
			}
		}
	}
	JOINT RightUpLeg
	{
		OFFSET -15.569500 -6.655098 0.678600
		CHANNELS 3 Xrotation Yrotation Zrotation
		JOINT RightLeg
		{
			OFFSET -4.081825 -39.591045 13.023800
			CHANNELS 3 Xrotation Yrotation Zrotation
			JOINT RightFoot
			{
				OFFSET 4.081824 -37.707954 -15.979600
				CHANNELS 3 Xrotation Yrotation Zrotation
				JOINT RightToeBase
				{
					OFFSET -5.346400 -15.068900 20.645000
					CHANNELS 3 Xrotation Yrotation Zrotation
					JOINT RightToe_End
					{
						OFFSET -2.754700 0.931300 11.300900
						CHANNELS 3 Xrotation Yrotation Zrotation
						End Site
						{
							OFFSET 0.000000 11.669021 0.000000
						}
					}
				}
			}
		}
	}
}
MOTION
Frames: 4
Frame Time: 0.033333
-0.834537 90.320396 0.889023 -16.971931 -39.313961 -8.511013 7.992404 0.151748 -1.102768 16.413457 -0.125520 -0.745992 16.413517 -0.192928 -0.721085 0.367408 7.480963 0.837546 -6.982134 21.597272 11.882990 -0.000001 -0.000001 -0.000000 -37.571074 -4.822511 1.545828 -41.616944 -7.005703 -61.677530 0.000066 -64.941466 0.000054 -119.361941 1.158791 32.492576 4.709228 9.560376 3.111989 19.473192 -1.474913 7.636924 -4.536193 -9.613118 1.492975 0.000003 -0.000000 0.000000 -0.212819 3.933718 -36.747125 2.942132 5.078902 -60.144610 0.513674 2.400833 -24.150489 0.000000 -0.000000 0.000000 0.405922 5.507053 -52.453165 3.387141 5.308616 -65.057470 0.282012 1.797443 -17.832386 -0.000000 0.000001 -0.000002 -0.074383 5.736795 -61.061427 4.055050 5.569514 -72.094907 0.582673 2.548966 -25.748019 -0.000001 -0.000001 -0.000001 -6.565564 4.545137 -72.425222 3.299618 5.267210 -64.107807 0.175335 1.424013 -14.038872 -0.000000 0.000002 -0.000001 -41.176287 -8.605643 -9.942310 -46.819680 58.242963 100.948666 0.000375 98.442963 -0.000342 -52.463103 -17.216620 -29.273112 8.377150 -4.904133 11.022007 21.620178 -18.183907 -18.379219 -0.702879 -49.821206 -32.535138 0.000001 -0.000001 0.000004 -0.920018 1.683577 12.434991 0.748121 -2.533470 32.898299 0.615639 -2.316060 29.767826 0.000000 -0.000000 -0.000001 3.413060 -7.186261 51.650256 6.296809 -4.359587 110.634660 0.248711 -1.503065 18.790252 0.000000 -0.000000 0.000000 -3.349039 -2.600432 57.010578 5.440853 -4.590911 99.698168 1.689424 -3.590709 50.382231 0.000000 0.000001 -0.000002 -3.996435 -3.303938 64.593864 4.058853 -4.618665 82.610530 2.315555 -4.026773 59.787221 -0.000001 0.000001 0.000002 -19.691760 43.634179 27.886913 23.866324 -0.360599 -1.060417 1.173676 2.025237 -4.098265 -0.000139 0.000002 -0.000000 0.000000 -0.000000 0.000000 8.090792 5.369367 -8.080217 28.380075 0.130487 1.350189 -21.559444 -18.000993 5.110551 -0.020494 0.000003 -0.000001 -0.000000 0.000002 0.000000 
-0.635934 90.161766 0.767975 -17.351187 -38.778198 -9.141107 8.170957 -0.015758 -0.970070 16.641544 -0.531437 -0.528453 16.670231 -0.616685 -0.451288 0.083138 7.505916 0.906529 -6.662648 22.175486 11.361268 -0.000000 -0.000001 -0.000000 -37.579735 -4.618890 1.628782 -41.191102 -6.188078 -61.575378 -0.000011 -66.290742 -0.000015 -118.814761 0.321135 33.065028 4.709228 9.560384 3.111989 19.473192 -1.474912 7.636928 -4.536191 -9.613119 1.492972 -0.000002 0.000006 -0.000003 -0.774942 2.853002 -33.560824 2.874949 5.039901 -59.382716 0.482644 2.330441 -23.398684 -0.000006 0.000001 -0.000003 0.021327 5.026686 -49.555085 3.350252 5.291386 -64.658143 0.269811 1.759101 -17.439266 0.000001 0.000001 0.000000 -1.138438 4.716725 -56.600278 3.931768 5.528364 -70.820333 0.530264 2.437450 -24.543484 0.000001 0.000000 -0.000000 -6.854874 4.454076 -72.434805 2.795436 4.992185 -58.473236 0.169398 1.400008 -13.797347 -0.000001 -0.000003 -0.000005 -41.259981 -8.499658 -10.209641 -46.923143 58.284005 100.561469 0.000366 98.265119 -0.000358 -53.016065 -16.875150 -28.039914 8.277871 -5.354584 10.864983 21.608808 -18.193674 -18.390788 0.019835 -49.789719 -31.844927 0.000001 0.000002 0.000002 -0.768216 1.659376 10.767053 0.747767 -2.532921 32.890305 0.615639 -2.316060 29.767819 0.000000 0.000000 -0.000000 3.041828 -6.951699 50.080583 6.281458 -4.365316 110.432875 0.248701 -1.503068 18.790255 -0.000001 0.000000 0.000000 -3.325676 -2.517997 56.301854 5.438099 -4.591359 99.663614 1.687105 -3.588820 50.345830 0.000000 -0.000000 0.000002 -3.908320 -3.220421 63.714122 4.060866 -4.618918 82.635563 2.316993 -4.027636 59.807923 0.000000 0.000001 -0.000000 -20.556527 43.274224 28.569040 24.555322 -0.878474 -0.841457 1.030127 2.031348 -3.800234 -0.158861 -0.000001 0.000002 -0.000000 -0.000001 -0.000000 7.959992 5.777588 -7.348194 28.977877 0.113353 1.234105 -20.587373 -18.707670 5.236866 -0.286386 -0.000004 0.000004 -0.000000 0.000001 -0.000000 
-0.482536 89.231018 0.410219 -17.894249 -37.932091 -9.915396 8.707117 -0.421882 -0.905025 17.292618 -1.509893 -0.269307 17.348426 -1.563256 -0.096759 -1.062907 7.680030 0.794643 -6.319281 23.782256 9.952626 -0.000000 -0.000001 0.000001 -37.641449 -4.370498 1.736808 -40.618431 -3.164074 -61.036995 0.000130 -69.965972 0.000126 -118.160237 -0.724993 34.599187 4.709228 9.560369 3.111989 19.473194 -1.474908 7.636923 -4.536192 -9.613116 1.492973 -0.000001 -0.000000 0.000001 -1.144891 2.126693 -32.310753 2.813730 5.003298 -58.683394 0.454862 2.265180 -22.705470 0.000002 0.000000 -0.000001 -0.187411 4.790588 -48.719271 3.283416 5.259348 -63.931295 0.248181 1.688734 -16.720250 0.000002 0.000002 -0.000002 -1.556645 4.203926 -54.395473 3.876499 5.508902 -70.245449 0.507569 2.387159 -24.004328 0.000001 -0.000002 0.000003 -6.905591 4.438125 -72.436581 2.591695 4.861785 -56.101340 0.173331 1.415944 -13.957623 0.000001 0.000002 -0.000002 -41.558436 -8.373572 -11.369834 -49.989458 58.407721 102.186371 0.000152 98.131554 -0.000166 -53.762786 -16.806674 -26.774664 8.902031 -5.678623 11.049781 20.893948 -18.935929 -18.368851 1.361849 -49.715871 -30.563608 -0.000003 0.000002 0.000003 -0.554472 1.394962 8.682491 0.747063 -2.531828 32.874319 0.615639 -2.316060 29.767829 0.000000 0.000000 -0.000003 2.762541 -6.779208 48.289601 6.258342 -4.373838 110.129355 0.248704 -1.503054 18.790245 0.000000 -0.000000 -0.000000 -3.319855 -2.383930 55.309714 5.431754 -4.592429 99.584233 1.682138 -3.584666 50.266077 0.000000 0.000001 0.000000 -3.815304 -3.070761 62.332320 4.062783 -4.619171 82.659393 2.318342 -4.028414 59.827143 -0.000001 0.000000 0.000001 -22.506139 41.690344 29.619532 27.172118 -1.166851 0.101000 0.297168 2.091259 -3.966959 -0.173069 -0.000001 0.000001 0.000000 0.000001 0.000000 6.697770 6.916370 -6.110395 32.066550 0.423801 0.792811 -19.491058 -19.630373 6.759441 -2.973132 0.016126 -0.528646 0.000000 0.000001 -0.000000 
-0.399356 87.543488 -0.132830 -18.675103 -36.814129 -10.559490 9.384815 -0.942427 -1.033094 18.139244 -2.767205 -0.292276 18.189554 -2.683540 -0.038377 -2.266442 7.845207 0.977824 -6.168191 26.268559 7.804321 0.000001 0.000000 0.000001 -37.687563 -3.979001 1.766232 -40.845569 -0.423183 -60.646349 0.000013 -73.907052 -0.000001 -117.542146 -2.157599 36.600552 4.709228 9.560371 3.111989 19.473192 -1.474910 7.636926 -4.536191 -9.613116 1.492973 -0.000001 -0.000005 0.000001 -1.316814 1.901816 -32.660021 2.777878 4.981397 -58.271499 0.438865 2.226603 -22.297281 0.000001 0.000001 -0.000002 -0.371115 4.674224 -49.319071 3.273789 5.254642 -63.826130 0.245170 1.678680 -16.617707 -0.000001 0.000001 -0.000001 -1.498582 4.242532 -54.334223 3.878735 5.509705 -70.268652 0.508343 2.388890 -24.022795 0.000000 0.000001 0.000002 -6.809833 4.468085 -72.432496 2.604849 4.870575 -56.256464 0.185072 1.462335 -14.425011 0.000001 -0.000001 -0.000002 -41.774079 -8.184637 -12.115422 -52.569172 58.046499 102.570754 0.000254 98.707053 -0.000258 -54.704460 -17.708155 -25.550380 10.533846 -5.403786 11.811880 19.772896 -20.107240 -18.289705 2.564907 -49.632895 -29.415214 -0.000002 -0.000002 0.000005 -0.340233 0.825584 6.704643 0.746300 -2.530671 32.857479 0.615639 -2.316060 29.767826 -0.000000 0.000000 -0.000002 2.712098 -6.813776 46.228633 6.243194 -4.379328 109.930986 0.248699 -1.503063 18.790265 -0.000001 0.000000 0.000000 -3.341711 -2.229546 54.326064 5.428784 -4.592930 99.547173 1.679920 -3.582858 50.230755 -0.000000 0.000000 -0.000002 -3.751082 -2.926985 61.078338 4.086145 -4.622110 82.949396 2.338501 -4.040053 60.113519 0.000000 0.000000 0.000001 -24.500691 38.809613 30.014856 31.281337 -0.787122 1.794217 -0.843914 2.415517 -4.809253 -0.537539 -0.000006 0.000004 0.000000 0.000001 0.000000 4.471574 8.165421 -4.520565 37.625091 0.311975 0.006234 -19.535886 -18.350164 7.116467 -5.731696 0.000330 -0.006227 -0.000000 -0.000003 -0.000000 
